<?xml version="1.0" encoding="UTF-8"?>
<svg width="20px" height="20px" viewBox="0 0 20 20" version="1.1" xmlns="http://www.w3.org/2000/svg" xmlns:xlink="http://www.w3.org/1999/xlink">
    <title>FAB4FC99-FFAD-4C47-909A-AB88AD7380C7</title>
    <g id="1920x1200-Landscape" stroke="none" stroke-width="1" fill="none" fill-rule="evenodd">
        <g id="Messstellen-&gt;-Uebersicht" transform="translate(-493.000000, -216.000000)" fill="#727980">
            <g id="Dashboard" transform="translate(325.000000, 200.000000)">
                <g id="icons/info-circle-solid" transform="translate(168.000000, 16.000000)">
                    <path d="M10,1.87499997 C5.52001936,1.87499997 1.87499997,5.52001936 1.87499997,10 C1.87499997,14.4799806 5.52001936,18.125 10,18.125 C14.4799806,18.125 18.125,14.4799806 18.125,10 C18.125,5.52001936 14.4799806,1.87499997 10,1.87499997 Z M10,3.12499997 C13.8037113,3.12499997 16.875,6.19628936 16.875,10 C16.875,13.8037113 13.8037113,16.875 10,16.875 C6.19628936,16.875 3.12499997,13.8037113 3.12499997,10 C3.12499997,6.19628936 6.19628936,3.12499997 10,3.12499997 Z M9.375,6.24999998 L9.375,7.49999999 L10.625,7.49999999 L10.625,6.24999998 L9.375,6.24999998 Z M9.375,8.74999999 L9.375,13.75 L10.625,13.75 L10.625,8.74999999 L9.375,8.74999999 Z" id="Shape"></path>
                </g>
            </g>
        </g>
    </g>
</svg>